<?xml version="1.0" encoding="UTF-8"?>
<!DOCTYPE svg PUBLIC "-//W3C//DTD SVG 1.1//EN" "http://www.w3.org/Graphics/SVG/1.1/DTD/svg11.dtd">
<!-- Creator: CorelDRAW 2019 (64-Bit) -->
<svg xmlns="http://www.w3.org/2000/svg" xml:space="preserve" width="210mm" height="297mm" version="1.1" style="shape-rendering:geometricPrecision; text-rendering:geometricPrecision; image-rendering:optimizeQuality; fill-rule:evenodd; clip-rule:evenodd"
viewBox="0 0 21000 29700"
 xmlns:xlink="http://www.w3.org/1999/xlink"
 xmlns:xodm="http://www.corel.com/coreldraw/odm/2003">
 <defs>
  <style type="text/css">
   <![CDATA[
    .fil2 {fill:#C7E7E4}
    .fil0 {fill:#C4DCC7}
    .fil1 {fill:#A2D2DA}
    .fil6 {fill:#9ED3AC}
    .fil3 {fill:#8CD0BC}
    .fil4 {fill:#8CCC9B}
    .fil5 {fill:#6AC6B6}
   ]]>
  </style>
 </defs>
 <g id="Layer_x0020_1">
  <metadata id="CorelCorpID_0Corel-Layer"/>
  <g id="_2310286005072">
   <path class="fil0" d="M10099.48 14228.59l-840.54 1072.01 0 992.39 863.52 2423.92c537.65,-1170.51 1511.98,1952.76 455.56,-3271.02l1500.49 34.47 2221.99 327.51 -129.69 3138.87 -1717.18 299.61c-3779.12,-20.52 -1168.87,416.16 -2345.95,-732.19 -151.03,38.58 -1873.96,449.82 -1950.3,481.83 -161.7,68.13 -380.86,150.22 -543.39,229.84l-1297.74 944.78 3384.3 -334.08 -371.02 3278.41 1391.32 -2820.39 3716.73 -142c999.78,1752.48 357.07,1715.54 1505.41,3266.1 3262.82,156.78 3440.12,-350.5 3143.8,-3527.95l-3334.23 -1003.88c-160.88,-70.59 -391.54,-214.24 -582.79,-329.97 366.91,-3742.18 418.62,-1653.98 2792.47,-3061.71 1784.5,-1059.7 2295.88,-1977.39 805.24,-4164.91 -4645.92,-1443.03 -2269.6,1090.88 -4571.22,3452.42l-4096.78 -554.06z"/>
   <path class="fil1" d="M5293.49 11735.72l2091.49 -90.29 1725.39 264.3 44.33 -1135.21 -3302.22 -760.09c-1392.95,-1230.43 -755.17,1583.39 -974.33,-3074.85l-2670.17 129.7c-1782.85,1125.36 -1365.05,-0.82 -1013.73,3216.02l4099.24 1450.42z"/>
   <path class="fil2" d="M1354.31 16162.47l2968.14 -41.04c-135.44,3070.74 -591,2813 -2997.69,2422.28 1238.64,1578.47 -390.72,960.38 2446.09,1406.91 2703.82,-1852.62 765.83,-1047.38 2265.5,-3492.65l3222.59 -164.98 0 -992.39 -2900.82 54.99 -1064.63 -3619.87 -162.52 2819.56c-818.37,261.03 -1415.12,265.13 -1490.64,294.68 -3872.69,1488.17 3451.61,-1960.97 -1145.88,462.13l-1140.14 850.38z"/>
   <path class="fil2" d="M2207.98 7069.28l2670.17 -129.7c219.16,4658.24 -418.62,1844.42 974.33,3074.85 -294.68,-2220.36 -640.25,-1641.67 525.34,-2393.55 1141.78,-737.11 549.95,50.07 1503.76,-479.37 1645.78,-911.95 564.74,607.42 1605.55,-1305.13 -2373.85,879.94 -111.63,747.78 -3276.76,351.32l306.17 -3202.89 -4308.56 4084.47z"/>
   <path class="fil3" d="M9329.53 23114.94l371.02 -3278.41 -3384.3 334.08c-802.77,1905.15 -831.5,1278.86 234.76,3339.97 2260.58,390.72 996.49,699.35 2778.52,-395.64z"/>
   <path class="fil1" d="M9487.13 5836.38c1551.38,-2433.77 -320.12,-3670.77 -2970.59,-2851.57l-306.17 3202.89c3165.13,396.46 902.91,528.62 3276.76,-351.32z"/>
   <path class="fil4" d="M12453.63 19246.35l1717.18 -299.61 129.69 -3138.87 -2221.99 -327.51 -496.61 1534.96c453.92,1392.14 247.07,1205.81 871.73,2231.03z"/>
   <path class="fil3" d="M9258.94 15300.6l840.54 -1072.01c-155.14,-3984.33 -270.88,-1617.04 -989.11,-2318.86 -294.68,3156.11 750.24,1960.16 -1864.11,2898.37 -317.67,-554.89 -1337.96,1239.46 -482.65,-2588.91 16.41,-75.52 255.28,-127.23 274.16,-317.66 19.7,-195.36 229.83,-173.2 347.21,-256.1l-2091.49 90.29 1064.63 3619.87 2900.82 -54.99z"/>
   <path class="fil1" d="M1324.76 18543.71c2406.69,390.72 2862.25,648.46 2997.69,-2422.28l-2968.14 41.04 -29.55 2381.24z"/>
   <path class="fil5" d="M9110.37 11909.73l-1725.39 -264.3c-117.38,82.9 -327.51,60.74 -347.21,256.1 -18.88,190.43 -257.75,242.14 -274.16,317.66 -855.31,3828.37 164.98,2034.02 482.65,2588.91 2614.35,-938.21 1569.43,257.74 1864.11,-2898.37z"/>
   <path class="fil6" d="M10122.46 18716.91l-14.78 -202.75c1177.08,1148.35 -1433.17,711.67 2345.95,732.19 -624.66,-1025.22 -417.81,-838.89 -871.73,-2231.03l496.61 -1534.96 -1500.49 -34.47c1056.42,5223.78 82.09,2100.51 -455.56,3271.02z"/>
  </g>
 </g>
</svg>
